# xmcd
#
# Track frame offsets: 
#        150
#        24052
#        48976
#        73939
#        92140
#        118239
#        142910
#        173856
#        195811
#        228546
#        250287
#        279636
#        303036
#
# Disc length: 4409 seconds
#
# Revision: 0
# Processed by: cddbd v1.5.2PL0 Copyright (c) Steve Scherf et al.
# Submitted via: ExactAudioCopy v0.99pb3
#
DISCID=ab11370d
DTITLE=Sista Monica Parker - Soul Blues and Ballads
DYEAR=2009
DGENRE=Blues
TTITLE0=I'm A Woman!
TTITLE1=The Walking Wounded
TTITLE2=Honey It's Your Fault
TTITLE3=Behind My Back
TTITLE4=Leave The Door Open
TTITLE5=Come To Mama
TTITLE6=A Chance To Breathe
TTITLE7=Never Say Never
TTITLE8=Pussy Cat Moan
TTITLE9=It's A Shame, It's A Mystery
TTITLE10=I Don't Want To Hurt You Baby
TTITLE11=How Long Does It Take
TTITLE12=Soul Shine
EXTD=
EXTT0=
EXTT1=
EXTT2=
EXTT3=
EXTT4=
EXTT5=
EXTT6=
EXTT7=
EXTT8=
EXTT9=
EXTT10=
EXTT11=
EXTT12=
PLAYORDER=
